<svg version="1.1" xmlns="http://www.w3.org/2000/svg" xmlns:xlink="http://www.w3.org/1999/xlink" width="126" height="150" viewBox="0,0,126,150"><defs><clipPath id="clip-1"><path d="M176.75,255.125v-150h126v150z" fill="none"/></clipPath><clipPath id="clip-2"><path d="M193.04411,213.65302v-81.4863h103.74987v81.4863z" fill="none" stroke="none" stroke-width="1"/></clipPath></defs><g transform="translate(-176.75,-105.125)"><g data-paper-data="{&quot;isPaintingLayer&quot;:true}" fill-rule="nonzero" stroke-linecap="butt" stroke-linejoin="miter" stroke-miterlimit="10" stroke-dasharray="" stroke-dashoffset="0" style="mix-blend-mode: normal"><g><g stroke="none" stroke-width="1"><g clip-path="url(#clip-1)"><path d="M176.75,105.125h126v150h-126z" fill="none" opacity="0.6"/><path d="M274.89,156.935c0,0 0,20.94 -1,29.48c0,0 0.29,3.32 -2.71,11.46c-3.03,8.3 -2.58,15.44 -3.52,21.53c-1.65,12.81 -4.71,15.48 -4.71,15.48c-4.04,4.27 -6.92,7.58 -9.4,9.8c-2.48,2.22 -9.57,9.41 -14.71,9.41c-4.9,0.03 -9.67,-3.75 -17,-12.41c-4.01,-4.72 -3.3,-4 -6.48,-7c0,0 -5.14,-4.85 -5.79,-15.25c-0.98,-6.03 -0.25,-14.01 -1.49,-21.2c-0.55,-3.2 -2.63,-5.79 -3.16,-11.74c-0.6,-6.6 -0.63,-8.11 0.32,-19.92c13.64607,-2.1091 26.76611,-6.79581 38.66,-13.81c3.03,-1.82 -6.49,7.85 -7.32,9c-0.83,1.15 14.22,-1.64 34.9,-12.46c3.61,-1.89 3.37,6.57 3.41,7.63z" fill="#d2d2d2"/><path d="M208.77907,186.00232c0,0 -0.21907,27.4327 0.78093,33.4327c0.65,10.4 5.79,15.25 5.77,15.25c-5.95,-2.5 -8.45,-6.7 -9,-7.06c0,0.75 0.54,4.11 -0.14,3.56c-7.18,-5.23 -10.62,-19.39 -12.09,-27.92c-4.78518,3.50258 -10.74716,5.00204 -16.62,4.18c-0.91,-0.17 9.49,-5.65 11.27,-11.17c0,0 -3.29,3.63 -11.44,3.57c0.00219,0.35985 6.23882,-4.35183 8.53108,-8.57786c2.903,-5.35198 5.54329,-15.88592 7.06218,-21.19436c0,0 11.11769,-16.53827 11.11769,-18.81827z" fill="#000000"/><path d="M289.71,195.535c-0.01,1.85 -0.12,4.02 -0.37,6.66c-1.1,11.34 -10,25.8 -10,25.8c-0.66,-1.24 -0.69,-2.87 -1.21,-4.1c-1.65989,3.63135 -4.27672,6.74251 -7.57,9c0.02,-2.08 0.96,-4.29 0.63,-5.55c-0.15,-0.59 -2.38,4.94 -8.27,7.59c0,0 3.06,-2.67 4.71,-15.48c0.94,-6.09 0.52,-13.23 3.52,-21.53c1.04618,-2.7596 4.47482,-35.12699 5.03905,-38.02381l4.28571,15.61905c0,2.28 -4.51476,27.71476 -1.51476,27.71476c3.27547,-0.01207 5.98972,-2.54334 6.23,-5.81v-0.3h1.35c1.24452,-0.01609 2.41291,-0.60212 3.17,-1.59z" fill="#000000"/><path d="M271.48,149.305c-20.68,10.82 -35.69,13.45 -34.9,12.45c0.79,-1 10.32,-10.81 7.32,-9c-11.88661,7.04921 -25.00705,11.76999 -38.66,13.91c-1.12258,-1.46147 -2.86726,-2.30973 -4.71,-2.29c-1.47571,-0.0903 -2.9199,0.45305 -3.9701,1.49371c-1.0502,1.04065 -1.60673,2.47981 -1.5299,3.95629v0.3h-2.13l1.15,-18.42c0.31114,-2.33269 0.75182,-4.64627 1.32,-6.93c3.58,-10.75 9.49,-17.91 16,-22.65c10.38,-7.57 22.18,-9 28.66,-9.13c6.48,0.13 18.33,1.56 28.72,9.13c6.46,4.69 12.36,11.85 15.95,22.65c0.57214,2.27949 1.01287,4.58996 1.32,6.92l1.17,18.43h-2v-0.35c0,-3.1 -1.95,-5.48 -5.81,-5.48c-1.85906,0.07157 -3.57369,1.02167 -4.62,2.56c0.09,-5.54 0.09,-9.89 0.09,-9.89c0,-1.09 0.24,-9.55 -3.37,-7.66z" fill="#000000"/></g></g><g><g clip-path="url(#clip-2)"><g><g><path d="M240.91724,202.88962c-5.42845,0.55239 -15.60438,2.11477 -18.53106,1.30036c-1.89632,-0.52769 11.80253,-6.81217 16.99142,-7.93104c0.93431,-0.20146 1.96264,-0.16492 3.05846,-0.22433c7.69786,-0.41736 18.40815,2.10246 18.3609,2.13052c-2.64595,1.57181 -8.5795,3.5746 -19.87972,4.72449z" fill="#000000" stroke="none" stroke-width="0"/><path d="M194.57338,149.759c0.66439,-3.87181 2.78011,-11.62105 2.78011,-11.62105c0,0 23.39187,3.3304 35.95023,2.37934c14.81666,-1.12209 47.30028,-7.53771 47.30028,-7.53771l-2.72247,15.47514c0,0 -25.11796,10.62325 -39.82463,13.23611c-13.39921,2.38057 -44.85876,1.80916 -44.85876,1.80916c0,0 0.65849,-9.56406 1.37524,-13.74099z" fill="#f6d645" stroke="none" stroke-width="0"/><path d="M195.01102,147.22821l0.67759,-3.90535c0,0 15.78963,0.86721 25.83422,0.78258c10.95232,-0.09228 42.5856,-1.79162 42.5856,-1.79162c0,0 -28.32473,3.83068 -40.35409,4.62427c-10.28491,0.67851 -28.74333,0.29013 -28.74333,0.29013z" fill="#c39e29" stroke="none" stroke-width="0"/><path d="M284.76646,213.64849c-0.13889,0.12194 -9.967,-7.64899 -11.94792,-16.03491c-2.13166,-9.02405 3.64512,-18.76023 5.67255,-20.13954c5.32383,-3.62195 12.99991,4.73115 14.8846,7.50255c3.61786,5.32001 -7.73351,27.90301 -8.60922,28.67189z" fill="#7b6518" stroke="none" stroke-width="0"/><path d="M291.3114,200.00502c-0.28833,0.25316 -13.61758,-2.9074 -16.82723,-16.77151c-0.1662,-0.7179 6.81644,-11.06528 10.63726,-7.25272c0.09761,0.0974 7.69211,5.07135 7.70862,5.09162c3.89009,4.7765 -1.06297,18.5325 -1.51866,18.93261z" fill="#442a0d" stroke="none" stroke-width="0"/><path d="M280.32093,141.78489c4.34934,0 11.62436,6.83341 14.69882,17.70974c0.30361,1.07405 0.56625,2.18753 0.78107,3.33774c2.55444,13.67737 -0.25512,32.55312 -3.8301,35.69198c-0.28833,0.25316 -13.46156,-7.12109 -16.67121,-20.9852c-3.32723,-14.37201 2.52408,-35.75427 5.02141,-35.75427z" fill="#c29e28" stroke="none" stroke-width="0"/><path d="M258.51372,203.84695c-2.18164,0.63689 -6.27872,-1.09982 -5.77996,-1.10735c1.17149,-0.0177 8.51557,-2.85072 8.51557,-2.85072c1.48383,-0.60631 5.3404,-3.06604 5.34413,-3.01169c0.15733,2.29535 -0.04668,5.18184 -3.94283,7.74191c-4.29389,2.82141 -6.4072,1.89242 -6.37263,1.86668c0.88742,-0.66067 2.22094,-2.62141 2.23573,-2.63882z" fill="#f6d645" stroke="none" stroke-width="0.5"/><path d="M237.66754,176.8759c0.01791,-4.56775 0.04873,-9.13657 0,-13.7036c-0.01002,-0.93895 -0.02888,-1.84299 -0.05315,-2.72803c0.75531,-0.28579 1.44195,-0.73782 2.02503,-1.31709c0.22268,-0.12967 0.44686,-0.25911 0.67441,-0.38529c0.12105,6.18263 0.30904,12.26052 0.30294,18.84774c-0.00032,0.35266 -0.0177,6.76033 -0.44237,7.19586c0,0 -1.6386,0.99858 -2.11821,-0.29418c-0.72421,-1.95208 -0.39268,-6.58967 -0.38866,-7.61541z" fill="#0f2c42" stroke="#0f2c42" stroke-width="2"/><path d="M241.39973,175.48437c-0.42466,-0.28488 -0.44204,-4.47603 -0.44237,-4.7067c-0.00611,-4.3086 0.18189,-8.28405 0.30294,-12.32802c0.22756,0.08253 0.45173,0.1672 0.67441,0.25201c0.58307,0.37889 1.26972,0.67456 2.02503,0.86149c-0.02427,0.57889 -0.04313,1.17021 -0.05315,1.78436c-0.04873,2.98722 -0.01791,5.97561 0,8.96331c0.00808,1.34845 0.681,3.8525 0.05427,5.1605c-0.03213,0.06707 -0.07083,0.1265 -0.11478,0.17979c-0.12924,0.15672 -0.8205,0.63519 -1.3386,0.56835c-0.63719,-0.08221 -1.10775,-0.7351 -1.10775,-0.7351z" fill="#0f2c42" stroke="#0f2c42" stroke-width="2"/><path d="M281.79695,144.44239l2.66169,-1.04949c0,0 1.73297,9.26876 2.33928,15.06885c0.82075,7.85145 1.38173,26.90343 1.38173,26.90343c0,0 -1.86289,-18.90314 -3.17478,-26.58218c-0.9481,-5.54965 -3.20792,-14.34059 -3.20792,-14.34059z" fill="#7b6518" stroke="none" stroke-width="0"/><path d="M193.41145,163.71289c0,0 -0.42721,-2.47495 -0.3675,-3.47811c0.05477,-0.92014 0.87738,-2.97381 0.87738,-2.97381c0,0 15.40262,1.30581 25.44721,1.22118c0.13,-0.0011 12.06863,-0.46693 24.13273,-1.714c12.15914,-1.25689 24.55491,-4.07169 24.55491,-4.07169c0,0 -9.92274,5.33124 -21.87713,8.08403c-8.54971,1.96879 -19.00832,2.31137 -24.02427,2.64228c-10.28491,0.67851 -28.74333,0.29012 -28.74333,0.29012z" fill="#c39e29" stroke="none" stroke-width="0"/><path d="M282.78307,145.06015c-3.32371,0 -6.01811,-2.88685 -6.01811,-6.44797c0,-3.56111 2.6944,-6.44797 6.01811,-6.44797c3.32371,0 6.01811,2.88685 6.01811,6.44797c0,3.56111 -2.6944,6.44797 -6.01811,6.44797z" fill="#f4c733" stroke="none" stroke-width="0"/></g></g></g></g></g></g></g></svg>